<?xml version="1.0" encoding="UTF-8"?>
<svg width="17px" height="17px" viewBox="0 0 17 17" version="1.1" xmlns="http://www.w3.org/2000/svg" xmlns:xlink="http://www.w3.org/1999/xlink">
    <!-- Generator: Sketch 47.1 (45422) - http://www.bohemiancoding.com/sketch -->
    <title>icon/Favorite - Unselected</title>
    <desc>Created with Sketch.</desc>
    <defs></defs>
    <g id="-" stroke="none" stroke-width="1" fill="none" fill-rule="evenodd">
        <g id="icon/Favorite---Unselected" stroke="#D6D6D6">
            <path d="M8.19463713,12.938117 L4.47527094,14.8945836 C4.10413419,15.0881506 3.67060807,14.7730043 3.7425958,14.3618744 L4.45287476,10.2201801 C4.48007013,10.0554082 4.42567939,9.88903656 4.30729957,9.77225646 L1.29821234,6.83835643 C0.997463593,6.54720604 1.16383524,6.03849273 1.57816464,5.97610336 L5.73585613,5.37300614 C5.90062805,5.34901023 6.04300379,5.24502795 6.11659125,5.0962533 L7.9770742,1.32889529 C8.16264258,0.952959353 8.69695153,0.952959353 8.88251991,1.32889529 L10.7430029,5.0962533 C10.8165903,5.24502795 10.9589661,5.34901023 11.123738,5.37300614 L15.2814295,5.97610336 C15.6957589,6.03849273 15.8621305,6.54720604 15.5613818,6.83835643 L12.5522945,9.77225646 C12.4339147,9.88903656 12.379524,10.0554082 12.4067194,10.2201801 L13.1169983,14.3618744 C13.188986,14.7730043 12.7554599,15.0881506 12.3843232,14.8945836 L8.66495698,12.938117 C8.51778206,12.8613301 8.34181205,12.8613301 8.19463713,12.938117 Z" id="Page-1"></path>
        </g>
    </g>
</svg>