<?xml version="1.0" encoding="UTF-8"?>
<svg width="230px" height="52px" viewBox="0 0 230 52" version="1.1" xmlns="http://www.w3.org/2000/svg" xmlns:xlink="http://www.w3.org/1999/xlink">
    <!-- Generator: Sketch 48.2 (47327) - http://www.bohemiancoding.com/sketch -->
    <title>logo/original copy</title>
    <desc>Created with Sketch.</desc>
    <defs></defs>
    <g id="Desktop-HD-Copy-29" stroke="none" stroke-width="1" fill="none" fill-rule="evenodd" transform="translate(-605.000000, -225.000000)">
        <g id="Group-3" transform="translate(598.000000, 225.000000)">
            <g id="logo/original-copy" transform="translate(7.000000, 0.000000)">
                <g id="Group" transform="translate(52.335329, 13.684211)" fill="#FFFFFF">
                    <path d="M21.0248922,13.4886632 C21.023515,11.9560316 20.7604611,10.4357158 20.249503,8.98929474 C19.778485,7.58392632 18.9714192,6.31129474 17.8985449,5.28087368 C17.2071677,4.61308421 16.3987246,4.07529474 15.5117784,3.69624211 C14.5752515,3.31034737 13.5698623,3.1174 12.5562096,3.13245263 C11.5370479,3.12424211 10.5261497,3.31855789 9.58411377,3.70582105 C8.65034132,4.09992632 7.80195808,4.67055789 7.08992216,5.38761053 C6.10932335,6.38108421 5.35597006,7.57024211 4.87944311,8.87708421 C4.35333533,10.2632947 4.0861497,11.7316105 4.09028144,13.2122421 C4.06549102,14.7640316 4.33956287,16.3062421 4.89872455,17.7554 C5.40004192,19.0403474 6.17818563,20.1994 7.17806587,21.1559263 C7.8749521,21.8155053 8.6861497,22.3437158 9.57447305,22.7118211 C10.511,23.1086632 11.520521,23.3111895 12.5383054,23.3029789 C13.5519581,23.3111895 14.5573473,23.1155053 15.4938743,22.7309789 C16.4221377,22.3409789 17.2663892,21.7826632 17.9866886,21.0834 C18.9273473,20.1597158 19.6683054,19.0567684 20.1696228,17.8429789 C20.7508204,16.4649789 21.0414192,14.9829789 21.0221377,13.4886632 L21.0248922,13.4886632 Z M24.0355509,13.2067684 C24.0548323,14.9994 23.7215389,16.7756105 23.0521976,18.4409789 C22.4751317,19.9120316 21.6047126,21.2517158 20.4932754,22.3792947 C18.4274072,24.5318211 15.5503413,25.7319263 12.5562096,25.6881368 C11.1404012,25.6977158 9.73423353,25.4431895 8.41207784,24.9409789 C7.10369461,24.4374 5.90962275,23.6806632 4.9001018,22.7118211 C3.70327545,21.5705579 2.75986228,20.1939263 2.12770659,18.6695053 C1.40465269,16.9329789 1.04656886,15.0664526 1.07549102,13.1862421 C1.05345509,11.5017158 1.33716766,9.82676842 1.9101018,8.24213684 C2.46926347,6.75329474 3.32177844,5.39034737 4.41806587,4.23403158 C5.43998204,3.12971579 6.68501198,2.25255789 8.07327545,1.6614 C10.9186647,0.470873684 14.123515,0.453084211 16.9840539,1.6094 C18.3062096,2.15676842 19.5057904,2.96276842 20.5084251,3.97950526 C21.6708204,5.16182105 22.5674072,6.5754 23.1389641,8.12718947 C23.7421976,9.75424211 24.0451916,11.4729789 24.0355509,13.2067684 Z" id="Fill-1"></path>
                    <path d="M44.8556467,22.8244421 C44.8432515,22.9311789 44.8115749,23.2281263 44.7578623,23.7139158 C44.7041497,24.2024421 44.6545689,24.7333895 44.6063653,25.3094947 L43.987982,25.3094947 C41.3822335,25.3505474 38.7861257,24.9838105 36.2946886,24.2257053 C34.0484012,23.5031789 32.2084012,22.4549684 30.7746886,21.0838105 C29.7582814,20.1149684 28.9470838,18.9518105 28.3892994,17.6654947 C27.7833114,16.2286526 27.4830719,14.6809684 27.511994,13.1223368 C27.4940898,11.6813895 27.7901976,10.2541263 28.3796587,8.94044211 C28.9305569,7.71570526 29.6949281,6.59770526 30.6369641,5.63707368 C31.9976826,4.27412632 33.8225329,3.19444211 36.1156467,2.39665263 C38.4817545,1.58517895 40.9704371,1.18149474 43.4728922,1.19791579 L44.2703174,1.19791579 C44.2827126,1.41002105 44.3061257,1.74665263 44.3405569,2.21054737 C44.3763653,2.67307368 44.4176826,3.17254737 44.464509,3.70486316 L43.8695389,3.70486316 C42.3242695,3.71170526 40.7831317,3.87317895 39.2709162,4.18928421 C37.8344491,4.46023158 36.4489401,4.95149474 35.1653473,5.64938947 C33.7550479,6.41707368 32.5692395,7.53233684 31.7208563,8.88981053 C30.9261856,10.1747579 30.5088802,11.6540211 30.5143892,13.1606526 C30.4951078,14.6713895 30.8683413,16.1616 31.5982814,17.4862316 C32.3199581,18.7834947 33.4630719,19.8727579 35.0248683,20.7526526 C36.3607964,21.5025474 37.8069042,22.0389684 39.3122335,22.3400211 C40.8616347,22.6670737 42.4413353,22.8340211 44.0251677,22.8381263 L44.3708563,22.8381263 C44.5168443,22.8408632 44.677982,22.8367579 44.8556467,22.8244421" id="Fill-3"></path>
                    <path d="M68.5303593,3.88973684 L66.1546108,3.87194737 C64.7608383,3.861 62.6508982,3.85552632 59.8261677,3.85552632 C59.8027545,6.26394737 59.7848503,8.09215789 59.7738323,9.33742105 C59.7614371,10.5854211 59.7559281,12.2836316 59.7559281,14.4334211 C59.7559281,16.5024737 59.7655689,18.603 59.7834731,20.7363684 C59.8013772,22.8697368 59.8165269,24.2887895 59.8289222,24.9935263 L56.9132934,24.9935263 C56.9367066,24.2887895 56.9587425,22.8478421 56.9766467,20.6747895 C56.9945509,18.499 57.0041916,16.3724737 57.0041916,14.2938421 L57.0041916,9.41542105 C57.0041916,8.21121053 56.9862874,6.357 56.9518563,3.85278947 C54.4342515,3.84184211 52.3931737,3.84184211 50.8258683,3.85278947 L48.2462874,3.88015789 L48.2462874,1.45805263 C49.4637725,1.45805263 50.9443114,1.46352632 52.6865269,1.47447368 C54.4301198,1.48678947 56.288024,1.49226316 58.262994,1.49226316 C61.1235329,1.49226316 63.5130539,1.48678947 65.4343114,1.47447368 L68.545509,1.45805263 L68.5303593,3.88973684 Z" id="Fill-5"></path>
                    <path d="M89.3686347,16.3552316 C87.0879162,11.4234421 84.7658802,6.33017895 82.4025269,1.07133684 L80.097018,1.07133684 C77.696479,6.33017895 75.3840838,11.3454421 73.1570778,16.1171263 C70.9286946,20.8888105 69.6616287,23.5818632 69.3558802,24.1935474 L71.7316287,25.4689158 C71.8032455,25.2923895 72.1778563,24.4535474 72.8527066,22.9496526 C73.5303114,21.4553368 76.7530659,14.3354421 76.7530659,14.3354421 C77.3012096,13.1394421 77.9953413,11.5999684 78.8354611,9.71702105 C79.6742036,7.83407368 80.394503,6.24670526 80.994982,4.95491579 L81.0652216,4.93849474 C81.8240838,6.64217895 82.554024,8.27607368 83.2536647,9.83881053 C83.9519281,11.4029158 84.613006,12.8986 85.2368982,14.3258632 C86.1720479,16.4674421 88.3370778,21.2131263 89.044982,22.8319684 C89.751509,24.4521789 90.1316287,25.3252316 90.1812096,25.4566 L92.9412096,24.0389158 C92.8365389,23.8459684 91.6465988,21.2856526 89.3686347,16.3552316" id="Fill-7"></path>
                    <path d="M115.945892,23.5821368 L113.725772,25.3966632 C113.46685,25.1257158 112.54685,24.1076105 110.96715,22.3396105 C109.386072,20.5716105 106.945593,17.8115053 103.64709,14.0620316 L103.664994,13.9019263 C104.287509,13.7117158 104.887988,13.4544526 105.455413,13.1342421 C106.133018,12.7866632 106.765174,12.3583474 107.336731,11.8561368 C107.796731,11.4278211 108.182359,10.9269789 108.481222,10.3755053 C108.837928,9.64066316 109.004575,8.82782105 108.967389,8.01224211 C108.989425,7.17750526 108.737389,6.35782105 108.249844,5.67771579 C107.749904,5.01676842 107.061281,4.52003158 106.273497,4.25455789 C105.579365,3.99455789 104.850802,3.83582105 104.111222,3.78792632 C103.355114,3.73455789 102.658228,3.70855789 102.019186,3.70855789 L101.042719,3.70855789 L100.541401,3.70855789 C100.517988,5.94045263 100.502838,7.90961053 100.495952,9.61329474 C100.489066,11.3156105 100.489066,12.5198211 100.495952,13.2272947 C100.495952,14.8365579 100.505593,17.0219263 100.523497,19.7847684 C100.541401,22.5448737 100.555174,24.2814 100.56206,24.9902421 L97.6395449,24.9902421 C97.6505629,24.2868737 97.6684671,22.9225579 97.6918802,20.8959263 C97.7152934,18.8706632 97.7263114,16.3486632 97.7263114,13.3312947 L97.7263114,10.0717158 C97.7263114,8.48708421 97.6973892,5.59697895 97.6395449,1.40550526 C97.757988,1.40550526 98.3488263,1.39318947 99.4106826,1.37129474 C100.472539,1.34666316 101.45176,1.33571579 102.349725,1.33571579 C103.349605,1.33434737 104.349485,1.39318947 105.342479,1.51224211 C106.317569,1.62855789 107.270623,1.88034737 108.174096,2.26076842 C109.288287,2.70961053 110.252359,3.46361053 110.953377,4.43382105 C111.647509,5.42045263 112.00697,6.60003158 111.980802,7.80287368 C111.980802,9.46550526 111.464335,10.8517158 110.432778,11.9656105 C109.580263,12.9248737 108.594156,13.7568737 107.504754,14.4369789 L107.504754,14.5259263 C109.125772,16.4061368 110.902419,18.3465579 112.836072,20.3458211 C114.768347,22.3437158 115.805413,23.4234 115.945892,23.5821368" id="Fill-9"></path>
                    <path d="M123.973305,24.9906526 L121.048036,24.9906526 C121.060431,24.2859158 121.076958,23.0297053 121.101749,21.2220211 C121.123784,19.4143368 121.133425,16.8184421 121.130671,13.4370737 C121.130671,12.0960211 121.125162,10.3417053 121.112766,8.17002105 C121.101749,5.99833684 121.078335,3.74317895 121.043904,1.40591579 L123.967796,1.40591579 C123.944383,3.08496842 123.923725,5.03770526 123.90582,7.26275789 C123.887916,9.48781053 123.882407,11.3037053 123.890671,12.7131789 C123.890671,16.2833895 123.901689,19.0448632 123.925102,21.0003368 C123.948515,22.9571789 123.965042,24.2859158 123.973305,24.9906526" id="Fill-11"></path>
                    <path d="M153.056186,1.40550526 C153.032772,3.25013684 153.012114,5.35750526 152.99421,7.72897895 C152.974928,10.1004526 152.966665,11.8096105 152.966665,12.8550842 C152.966665,16.1912947 152.977683,18.8405579 153.001096,20.8097158 C153.024509,22.7761368 153.036904,23.8216105 153.038281,23.9447684 L150.680437,25.0887684 C147.111994,20.2979263 143.776305,15.9764526 140.674749,12.1270842 C137.571814,8.27634737 135.778641,6.04992632 135.291096,5.44234737 L135.256665,5.46013684 C135.256665,8.60750526 135.277323,12.4732947 135.318641,17.0575053 C135.359958,21.6417158 135.387503,24.2868737 135.399898,24.9902421 L132.639898,24.9902421 C132.652293,24.6974 132.66882,23.6519263 132.692234,21.8551895 C132.715647,20.0598211 132.728042,17.5583474 132.728042,14.3507684 C132.728042,13.0712947 132.721156,11.3717158 132.710138,9.25066316 C132.697743,7.13234737 132.675707,4.88813684 132.639898,2.52076842 L135.33379,1.25361053 L140.767024,8.09982105 C144.177084,12.3952947 147.38882,16.3828737 150.402234,20.0639263 L150.438042,20.0461368 C150.438042,18.2384526 150.414629,15.1950842 150.367802,10.9187684 C150.320976,6.64108421 150.297563,3.47045263 150.297563,1.40550526 L153.056186,1.40550526 Z" id="Fill-13"></path>
                    <path d="M176.766569,24.9558947 L174.408725,24.9381053 C172.943335,24.9271579 171.129503,24.9216842 168.964473,24.9216842 C167.460521,24.9216842 166.08603,24.9271579 164.843754,24.9381053 C163.601479,24.9504211 162.546509,24.9558947 161.680222,24.9558947 C161.703635,24.2744211 161.725671,22.8006316 161.743575,20.5345263 C161.761479,18.2670526 161.77112,15.9243158 161.77112,13.5063158 C161.77112,12.1762105 161.764234,10.4205263 161.753216,8.23926316 C161.74082,6.05663158 161.718784,3.79736842 161.682976,1.45736842 C162.518964,1.45736842 163.568425,1.46284211 164.828605,1.47515789 C166.090162,1.48747368 167.38615,1.49294737 168.719323,1.49294737 C170.976629,1.49294737 172.816629,1.48747368 174.237946,1.47515789 L176.543455,1.45736842 L176.543455,3.90410526 L174.31094,3.88084211 C172.94609,3.86168421 171.246569,3.85210526 169.213754,3.85210526 L166.608006,3.85210526 L164.584832,3.85210526 C164.584832,5.18221053 164.573814,6.50684211 164.550401,7.82463158 C164.526988,9.14515789 164.514593,10.3904211 164.514593,11.5645263 L166.404174,11.5645263 L168.34609,11.5645263 C170.425731,11.5645263 172.285012,11.5549474 173.922557,11.5357895 L176.536569,11.5097895 L176.536569,13.9743158 L173.609922,13.9469474 C171.754772,13.9277895 170.059383,13.9195789 168.523754,13.9195789 L166.495072,13.9195789 L164.517347,13.9195789 C164.517347,16.1405263 164.522856,17.9016842 164.535251,19.2030526 C164.546269,20.5057895 164.558665,21.5977895 164.57106,22.4776842 C165.267946,22.49 166.113575,22.4995789 167.106569,22.5064211 C168.099563,22.5132632 169.169683,22.5132632 170.314174,22.5064211 C172.075671,22.5064211 173.554832,22.4995789 174.754413,22.4886316 L176.762437,22.4722105 L176.766569,24.9558947 Z" id="Fill-15"></path>
                </g>
                <g id="Page-1">
                    <path d="M43.9539021,21.0801744 C45.703641,26.414066 44.4350803,30.203669 43.7609162,32.1848287 C43.9850371,30.9864811 43.9580191,29.7556221 43.6811486,28.5679422 C43.6631366,28.479044 43.6425515,28.3926858 43.6219663,28.3012476 C43.6013811,28.2098095 43.580796,28.1259912 43.5576377,28.0345531 L43.4855896,27.7627786 C42.4563314,23.952856 39.5383844,19.5612853 35.6889586,15.8834401 C35.5276224,15.7277413 35.3665435,15.5753444 35.2052073,15.4262494 C34.793504,15.0376373 34.386947,14.6642649 33.9778169,14.3239118 C33.6247813,13.9894006 33.2537337,13.673939 32.866218,13.379051 C32.3721741,12.9663094 31.8336147,12.6086847 31.2605752,12.3122727 L31.23999,12.299573 C29.1145718,11.067698 25.3963766,9.89424185 21.3513918,12.7237443 C18.5209317,14.755703 15.7393614,21.5018059 21.6087063,26.2057902 C12.3608213,19.3276101 16.8715454,6.30529482 21.9149107,2.9068439 C23.3298834,3.33431721 24.7183527,3.84306887 26.0731138,4.43081292 C26.2197831,4.49177168 26.3638793,4.55527039 26.5028291,4.62130905 L26.677803,4.7025874 C33.8954762,8.28645454 41.7281312,14.2527932 43.9539021,21.0801744" id="Fill-19" fill="#FABA2F"></path>
                    <path d="M43.7687128,32.1899848 C43.7702567,32.2024305 43.7702567,32.2153843 43.7687128,32.228084 C43.1547603,33.9915702 42.3516815,35.6852077 41.372857,37.2800413 C42.734051,30.9149307 41.8669009,21.4739426 34.3739012,14.6999004 L34.3507429,14.6770408 C34.2815252,14.6059223 34.2146235,14.5373437 34.1425754,14.473845 C34.5105352,14.7862586 34.8682024,15.1062921 35.2232965,15.4314055 C35.3843754,15.5802465 35.5457116,15.7328974 35.7070479,15.8885962 C39.0904769,19.1905291 42.358629,23.6633781 43.5036788,27.7679347 L43.5757269,28.0397092 C43.5988852,28.1311473 43.6194703,28.2200455 43.6400555,28.3064037 C43.6606407,28.392762 43.6783954,28.4867401 43.6989805,28.5730983 C44.0000386,29.8489144 44.0000386,31.1757834 43.6989805,32.4515995 C43.6966647,32.3652412 43.737835,32.2814229 43.7687128,32.1899848" id="Fill-21" fill="#4D3D75"></path>
                    <path d="M34.3664133,14.6997988 C41.8565826,21.476381 42.7265631,30.9148291 41.3653691,37.2799397 C40.1040132,39.3426318 38.6030974,41.2529269 36.8929849,42.972218 C40.0324798,37.4958353 41.9443269,22.3806026 34.3664133,14.6997988" id="Fill-23" fill="#604C87"></path>
                    <path d="M34.3664133,14.6997988 C41.9443269,22.3831426 40.0273335,37.4958353 36.8929849,42.972218 C34.6013415,45.3163363 31.9353054,47.2733665 29.0011476,48.7655862 C35.745362,41.9255053 41.1415055,21.5881387 33.5404336,13.9835333 C33.8147309,14.2139066 34.082338,14.44428 34.343255,14.6743993 L34.3664133,14.6997988 Z" id="Fill-25" fill="#795CA0"></path>
                    <path d="M33.5404593,13.9860733 C41.1415312,21.5881387 35.7453877,41.9255053 29.0011733,48.7655862 C24.1430746,51.186157 19.0382112,51.778219 15.0781402,49.4767718 C8.37252296,45.577951 3.09242835,30.427159 1.63860113,24.6411567 C3.43697253,26.4851592 5.55338473,27.9989684 7.8887716,29.1114658 L8.2052685,29.2562428 C11.3375585,30.7101093 14.7830004,31.3849736 18.240536,31.2221629 C23.8397007,31.0900855 29.3205007,28.5171179 32.1663996,25.6977752 C32.2716413,25.5961772 32.3797134,25.4920394 32.4777502,25.3828216 C35.5397934,22.2866245 36.6925626,16.2034482 31.2786644,12.3122473 L31.2992496,12.324947 C32.0760822,12.8382706 32.8243529,13.3929953 33.5404593,13.9860733" id="Fill-27" fill="#8E6EAF"></path>
                    <path d="M32.4699793,25.3980867 C32.3696267,25.5073044 32.2641277,25.6114423 32.1586287,25.7130403 C30.4886573,27.3182876 26.0937247,30.4754434 19.7123238,31.1282102 C19.3392177,31.1663094 18.8374543,31.2120285 18.230192,31.237428 L17.4736872,31.237428 C14.279899,31.2323481 11.1234214,30.5615477 8.21036333,29.268968 L7.89386643,29.1241909 C5.57057334,27.9801982 3.45596235,26.463595 1.63597652,24.6361022 C1.25463635,23.3874635 0.960525817,22.1144414 0.755960748,20.8261796 C4.38666908,26.315008 19.0484523,36.7491159 31.8086809,25.9746549 C31.8781559,25.921316 31.9424845,25.8628972 32.0119594,25.8019385 L32.1969686,25.6419217 L32.4699793,25.3980867 Z" id="Fill-29" fill="#0E784A"></path>
                    <path d="M32.4699793,25.3980867 L32.1946528,25.6520815 L32.0093863,25.8120982 C19.1976947,36.6297383 4.07017218,17.0949955 0.755960748,11.3216928 C1.49702666,7.38477287 3.3985812,3.66882841 7.31233554,1.47431303 C13.8404057,-2.19337241 22.1002029,2.56649082 26.52344,4.63908869 C26.3870633,4.57558998 26.2429672,4.50955132 26.0937247,4.44859256 C23.9160717,3.45191682 21.627516,2.71101389 19.2748891,2.24137743 L19.0587449,2.20073826 C17.3656151,1.89340451 15.7136557,1.80704626 14.3009988,2.11945991 L14.1774878,2.14739934 C12.9372317,2.42171377 11.9903141,2.97288256 11.4139295,3.79328588 C11.3869115,3.83011514 11.3622093,3.86821436 11.3393083,3.90758356 C10.9299208,4.46789617 10.6386408,5.10364524 10.4824508,5.77698556 L10.4618657,5.86080385 C10.4309879,5.97586351 10.4034553,6.09117717 10.379525,6.20623683 C10.1222105,7.10537855 10.1016253,8.26105506 10.3100501,9.56404857 C10.63967,11.5703538 11.2855295,13.5131603 12.2244703,15.3221115 C12.2682138,15.4135496 12.3171036,15.5075277 12.3659934,15.5989659 C13.6415016,18.1589798 15.2924318,20.5193538 17.2652624,22.6041435 C17.3681882,22.7159012 17.4736872,22.825119 17.5843325,22.9317968 C17.6332222,22.9866597 17.6854571,23.0384746 17.7412944,23.0867337 C18.124693,23.4753458 18.5286769,23.8487182 18.9455265,24.2093908 C19.0201477,24.2805094 19.0999152,24.349088 19.1796827,24.4125867 C19.9385033,25.087451 20.7595941,25.6911967 21.6318904,26.21595 C28.2165698,30.1350904 32.4674062,25.2202903 32.4699793,25.3980867" id="Fill-31" fill="#83CE5B"></path>
                    <path d="M32.0118822,25.7892641 C31.9424073,25.8502229 31.8780787,25.9086417 31.8086037,25.9619806 C19.0277899,36.6069042 3.76131753,22.4060529 0.37248487,16.9223044 C0.291688101,15.0473145 0.420088062,13.1690227 0.755883553,11.3217182 C4.07009499,17.0950209 19.1976175,36.6297637 32.0118822,25.7892641" id="Fill-33" fill="#60B74B"></path>
                    <path d="M0.372510602,16.9222536 C3.74847753,22.411082 19.0278156,36.6068534 31.8086295,25.9619298 C19.0484008,36.7391847 4.38661762,26.3048228 0.755909285,20.8261542 C0.546969868,19.5338285 0.418827221,18.230073 0.372510602,16.9222536" id="Fill-37" fill="#169C4D"></path>
                    <path d="M21.1275281,25.8401139 C21.2922094,25.9645713 21.4594639,26.0941087 21.6292915,26.2084064 C20.7698609,25.6651114 19.9503141,25.0623817 19.1770838,24.4050431 C19.0973163,24.3415443 19.0201219,24.2729657 18.9429276,24.2018472 C18.7447954,24.0189709 18.54409,23.8335547 18.3433847,23.6354387 C18.1426793,23.4373227 17.9496934,23.2798459 17.7386955,23.0766501 C17.6831155,23.028391 17.6306234,22.9765761 17.5817336,22.9217132 L17.2652367,22.6042197 C15.3147924,20.5029204 13.6654061,18.1476263 12.3633945,15.604122 C12.3145047,15.5126838 12.2681881,15.4187057 12.2218715,15.3272676 C11.3073756,13.5084106 10.6628026,11.56916 10.3074512,9.56920466 C10.1301615,8.45467532 10.1538344,7.31779443 10.3769261,6.21139292 C10.3843883,6.17938958 10.3936516,6.14814821 10.4052307,6.11741483 C10.4232427,6.03359654 10.4386816,5.94723829 10.4592668,5.86342 L10.479852,5.7796017 C10.6628026,5.11540521 10.9520242,4.48422804 11.3367094,3.91019971 C11.9797385,3.07100077 12.8924332,2.47284293 13.9252938,2.2135142 C10.515876,8.36018924 11.6094628,18.7206386 21.1275281,25.8401139" id="Fill-39" fill="#D87319"></path>
                    <path d="M21.629343,26.2083302 C21.4620885,26.0864127 21.2922609,25.9543354 21.1275796,25.8400377 C12.1215703,18.9821771 12.7159669,6.68374712 17.2524224,1.98484265 C17.8563397,2.02878376 18.4576838,2.10422022 19.0536243,2.21089805 L19.2697685,2.25153723 C20.1683109,2.42679366 21.0565608,2.65056311 21.930401,2.9220836 C16.8896089,6.31037471 12.381458,19.33269 21.629343,26.2083302" id="Fill-41" fill="#F99932"></path>
                    <path d="M17.2549956,1.97463206 C12.71854,6.67607648 12.1370091,18.9618067 21.1301527,25.8298271 C11.6095143,18.7179717 10.5185006,8.34990245 13.9253453,2.20830731 C14.0076859,2.18036787 14.0925997,2.16004829 14.1826598,2.1397287 L14.3061708,2.11178927 C15.2777906,1.93221492 16.2702528,1.88598786 17.2549956,1.97463206" id="Fill-43" fill="#EA852A"></path>
                    <path d="M19.0909808,24.4993061 C19.8562312,25.179658 20.6835113,25.7880687 21.5623369,26.31675 C25.1138397,28.4338553 28.2548127,28.2517417 30.9292989,26.6662784 C31.3802113,26.3989728 31.7692532,26.1189086 32.1382879,25.8152936 C32.1989239,25.7654066 32.2559154,25.7174718 32.3193353,25.663314 C32.3372784,25.6479915 32.428103,25.5700402 32.4484715,25.5527704 C32.4838586,25.5227665 32.5056535,25.5051449 32.5175169,25.4968696 C32.4313216,25.5243864 32.3427374,25.4788004 32.3413115,25.3873151 L32.5985957,25.3834079 C32.5970531,25.2844368 32.5039857,25.2365437 32.4253149,25.2604519 C32.4042893,25.2668416 32.3884462,25.2758886 32.3690187,25.2894401 C32.3483024,25.3038907 32.3223728,25.3248553 32.2808094,25.3600959 C32.2597384,25.3779614 32.1684087,25.4563461 32.1509845,25.4712256 C32.088672,25.5244377 32.0328387,25.5713984 31.9735419,25.6201835 C31.6140003,25.9159883 31.2353738,26.1885546 30.7968211,26.4485333 C28.1995453,27.9882255 25.1597006,28.1644756 21.6958012,26.0995932 C20.8310474,25.5793761 20.0165876,24.9803938 19.2631868,24.3105768 L19.0909808,24.4993061 Z" id="Stroke-45" fill="#333333" fill-rule="nonzero"></path>
                    <path d="M17.6508353,23.1695214 C17.8605455,23.3739704 18.0630412,23.5610816 18.2608517,23.7332173 C18.3524454,23.8129226 18.4335242,23.8894876 18.5977041,24.0488033 L18.6066302,24.0574655 C18.7343555,24.1814192 18.7884214,24.2332691 18.8576029,24.2971237 L19.0333471,24.1115998 C18.9662903,24.0497062 18.913176,23.9987689 18.7870271,23.876345 L18.7780917,23.8676738 C18.6105924,23.7051371 18.527264,23.6264477 18.4310125,23.5426892 C18.236951,23.3738158 18.0379925,23.1899732 17.8316505,22.9888078 L17.6508353,23.1695214 Z" id="Stroke-47" fill="#333333" fill-rule="nonzero"></path>
                    <path d="M12.2460213,15.6537101 C13.5537697,18.2107222 15.2107381,20.578358 17.1704199,22.6899793 L17.491604,23.0198564 L17.6771124,22.8438388 L17.3580424,22.5161854 C15.4163831,20.4239297 13.7728617,18.0755082 12.4757242,15.5392434 L12.2460213,15.6537101 Z" id="Stroke-49" fill="#333333" fill-rule="nonzero"></path>
                    <path d="M10.3349069,5.82578541 C10.3030606,5.94471613 10.2750734,6.06201419 10.2509231,6.17813182 C10.0246579,7.30051752 10.000789,8.45220567 10.1803769,9.58118288 C10.5119244,11.6008063 11.1621379,13.5563371 12.1073941,15.3774556 L12.3364003,15.2616367 C11.4034016,13.4641335 10.7616239,11.5339734 10.4344776,9.5411688 C10.2596882,8.4423483 10.2829329,7.32077885 10.5031351,6.22845677 C10.526151,6.11780526 10.5530394,6.00511267 10.5836781,5.8906916 L10.3349069,5.82578541 Z" id="Stroke-51" fill="#333333" fill-rule="nonzero"></path>
                    <path d="M14.1467587,2.0234747 C12.8641432,2.30715797 11.8961883,2.8803056 11.3056086,3.72091371 C11.2772076,3.75997303 11.2499585,3.80167456 11.2251367,3.84434577 C10.8372548,4.42268471 10.5422952,5.06624408 10.3557018,5.7436655 L10.6040021,5.81030561 C10.7834049,5.15898961 11.0669927,4.5402417 11.4440137,3.97765006 C11.4687406,3.93565095 11.4912936,3.90113622 11.515877,3.86730346 C12.0677868,3.08176468 12.9794525,2.54194712 14.2030192,2.27132399 L14.1467587,2.0234747 Z" id="Stroke-53" fill="#333333" fill-rule="nonzero"></path>
                    <path d="M19.0816234,2.00888429 C18.4796874,1.92802764 17.8738506,1.87079358 17.2669751,1.83757947 C16.2696312,1.77158161 15.26266,1.80868004 14.2769304,1.94790412 L14.3250157,2.13559171 C15.2873825,1.99966739 16.2704851,1.96344831 17.246098,2.02799718 C17.8458931,2.06083498 18.4427536,2.11722105 19.0358149,2.19688557 L19.0816234,2.00888429 Z" id="Stroke-55" fill="#333333" fill-rule="nonzero"></path>
                    <path d="M26.147767,4.33340288 C23.9606648,3.33240242 21.6624796,2.58846586 19.3003141,2.11692532 L19.2493096,2.36588035 C21.5917249,2.83347833 23.8707007,3.57119667 26.0395281,4.56383304 L26.147767,4.33340288 Z" id="Stroke-57" fill="#333333" fill-rule="nonzero"></path>
                    <path d="M0.882450313,11.3423418 C1.70707756,6.96432776 3.81814911,3.57960027 7.37588207,1.58471274 C9.2596706,0.526338188 11.379419,0.124072056 13.7287898,0.290034433 C16.4502634,0.482282601 19.2618341,1.37962634 22.6669994,2.93683397 C23.583095,3.35577139 26.259925,4.65616756 26.4682677,4.75379078 L26.5786123,4.5243358 C26.372944,4.4279657 23.694627,3.12684715 22.7751651,2.70637033 C19.3441545,1.1373434 16.5062426,0.231592625 13.7471574,0.0366875233 C11.3496307,-0.132676645 9.17943197,0.279163484 7.2486936,1.36391606 C3.61889253,3.39921348 1.46700363,6.84938432 0.629471182,11.2959131 L0.882450313,11.3423418 Z" id="Stroke-61" fill="#333333" fill-rule="nonzero"></path>
                    <path d="M0.883066114,20.8064884 C0.67529766,19.5241158 0.547814532,18.2298864 0.501138544,16.9304532 C0.420464718,15.0639297 0.548413598,13.1952246 0.882595642,11.3567962 L0.629325853,11.3119381 C0.291805596,13.168731 0.162578095,15.0561104 0.244021729,16.9403668 C0.291035693,18.2493018 0.419542262,19.5539214 0.628917919,20.8462099 C0.834277045,22.1394763 1.12965034,23.4181855 1.51279496,24.6727325 L1.54429598,24.725175 C3.372553,26.5581906 5.49612822,28.0795936 7.82873747,29.2276586 L7.94355652,29.0003528 C5.64587449,27.8694783 3.55325443,26.3723723 1.74998899,24.569338 C1.37469807,23.3355672 1.08502093,22.078312 0.883066114,20.8064884 Z" id="Stroke-63" fill="#333333" fill-rule="nonzero"></path>
                    <path d="M32.0688695,25.6119468 C29.4012682,28.1761583 24.9186239,30.4578604 19.6990622,30.9917802 C19.1923671,31.0435207 18.7390382,31.0789245 18.2247453,31.1004354 C14.7877319,31.2622779 11.3631657,30.5913629 8.2496635,29.1464694 L8.14018541,29.3763285 C11.2916863,30.8388562 14.7580477,31.5179594 18.2363225,31.3541721 C18.7557626,31.3324477 19.2140575,31.2966561 19.7255625,31.2444245 C25.0065598,30.7042203 29.5414824,28.3959081 32.2483879,25.7939157 L32.0688695,25.6119468 Z" id="Stroke-65" fill="#333333" fill-rule="nonzero"></path>
                    <path d="M31.7667823,25.9137832 C26.0254186,30.7628093 19.4829272,31.6789991 12.8796557,29.4299937 C7.79103579,27.6968628 2.95765532,24.032692 0.809717193,20.7914949 L0.702049913,20.8610167 C2.8657828,24.1260478 7.72239159,27.8078279 12.8376914,29.5500457 C19.4821295,31.8130721 26.0725104,30.8901759 31.8504252,26.0102796 L31.7667823,25.9137832 Z" id="Stroke-67" fill="#333333" fill-rule="nonzero"></path>
                    <path d="M32.1522149,25.5839743 L31.9669484,25.743991 C31.9779066,25.7343735 31.8881824,25.8134508 31.8653091,25.8332067 C31.8282735,25.8651948 31.7971585,25.8908625 31.7665366,25.9143723 C26.0512314,30.6744874 19.4266206,30.8358469 12.5949366,27.4362081 C7.52369737,24.9126164 2.56801231,20.3598119 0.424829202,16.8917512 L0.314994247,16.9578866 C2.47057432,20.4460078 7.44416359,25.015261 12.5370198,27.54961 C19.4112552,30.9704236 26.0907636,30.8077269 31.8475148,26.0130262 C31.8783501,25.9894164 31.9112753,25.9622553 31.9500305,25.928782 C31.9734739,25.9085337 32.0638699,25.8288643 32.0520467,25.8392382 L32.2369363,25.6795496 L32.1522149,25.5839743 Z" id="Stroke-69" fill="#333333" fill-rule="nonzero"></path>
                    <path d="M32.4260554,25.3516944 L32.1507289,25.6056893 L31.9670256,25.7643106 C26.2733749,30.5717785 19.719029,29.7697041 12.8594903,24.737534 C8.01194514,21.181366 3.2346833,15.5107875 0.811928442,11.2903878 L0.699993053,11.3529979 C3.13103857,15.5878398 7.91964407,21.2718832 12.7827467,24.8394641 C19.6854317,29.9032865 26.3038148,30.7131973 32.0512015,25.8603518 L32.2370135,25.6998692 L32.5139032,25.4444789 L32.4260554,25.3516944 Z" id="Stroke-73" fill="#333333" fill-rule="nonzero"></path>
                    <path d="M20.2791748,25.1279655 C19.9323729,24.8676171 19.5937078,24.5969828 19.263667,24.3164085 C19.1801476,24.2498379 19.1039362,24.1838592 19.0349168,24.1180795 C18.5972628,23.7392103 18.19984,23.369511 17.8334914,22.9981809 C17.7752647,22.9473238 17.7269218,22.8995459 17.6809607,22.8479695 C17.5706321,22.7410883 17.4675976,22.6350684 17.3604868,22.5187666 C15.3972866,20.4467581 13.7546248,18.1027595 12.4839705,15.5606048 C12.4262997,15.4526424 12.3818847,15.3661434 12.3434074,15.2857132 C11.4332191,13.4753694 10.7923066,11.5477329 10.4393747,9.55995555 C10.2328954,8.2690086 10.2555526,7.13351309 10.505936,6.2585912 C10.5518321,6.06750148 10.5690475,5.98678348 10.5892804,5.90689574 C10.7625147,5.16403283 11.0467996,4.54388309 11.4462568,3.99716163 C12.0701823,3.18557738 12.9580557,2.6054202 13.9620831,2.35437775 C14.038497,2.33088366 14.0725422,2.32203998 14.2190101,2.28589543 L14.3400561,2.25853889 C15.6456496,1.9698042 17.2294101,2.01122517 19.0457945,2.34093188 L19.2611341,2.38142238 C20.1547935,2.55572946 21.0384546,2.77841144 21.9072096,3.04835182 C23.3190478,3.4748824 24.7027737,3.9819843 26.0522765,4.56744711 C26.1797905,4.61956331 26.2952658,4.67121218 26.4789553,4.75657927 C26.5226978,4.77318996 26.5549257,4.78721167 26.5852284,4.80270554 C35.0963383,9.02251861 41.8625479,15.0440206 43.8495115,21.1293434 C44.6348819,23.5281288 44.8632644,25.7610483 44.6543522,27.8896455 C44.5431023,29.0231659 44.3565009,29.9167811 44.0288869,31.0031807 C44.0764346,30.1793147 44.004794,29.3504124 43.8139652,28.5417229 C43.8056423,28.5068054 43.799275,28.4777095 43.7851142,28.4111023 C43.7705201,28.3424573 43.7638715,28.312076 43.7549744,28.274751 C43.750632,28.256534 43.7297186,28.1681987 43.7237633,28.1432595 C43.7112986,28.0910612 43.7008213,28.048183 43.6902245,28.0063424 L43.4405927,28.0679452 C43.4508704,28.1085259 43.4610917,28.1503562 43.4733123,28.2015327 C43.4791959,28.2261713 43.5000937,28.3144405 43.5045,28.3329258 C43.5127572,28.367566 43.5191244,28.3966618 43.5332853,28.4632691 C43.5478793,28.5319141 43.5545279,28.5622953 43.563425,28.5996204 C43.8599449,29.8562061 43.8599449,31.163361 43.5633593,32.420224 L43.8106059,32.4895224 C43.837406,32.4108745 43.8674541,32.3264902 43.8998909,32.2384398 C44.4751031,30.5432495 44.760273,29.4444638 44.9104676,27.9141376 C45.1227157,25.7515514 44.8907632,23.4837274 44.0943884,21.0513309 C42.0817566,14.887396 35.2675092,8.82314334 26.7664667,4.60946536 C26.6639155,4.55689142 26.6222862,4.53877937 26.5788431,4.52273483 C26.4014337,4.43981471 26.2828942,4.3867953 26.1532354,4.33383556 C24.7971056,3.7454649 23.4039539,3.23490868 21.9834922,2.80577709 C21.1067176,2.53334063 20.2139155,2.30835513 19.3101472,2.13207941 L19.0931365,2.09127429 C17.2446996,1.75574685 15.6278041,1.71345928 14.2831895,2.01082515 L14.1590671,2.03890135 C14.0045851,2.07699819 13.9681716,2.08645708 13.8919167,2.1101137 C12.8383429,2.373336 11.9004657,2.98616678 11.2394158,3.84610711 C10.8179674,4.42286302 10.5193464,5.07428604 10.3596277,5.76397533 C10.3178536,5.9313485 10.2993088,6.01829965 10.283621,6.10863121 C9.99672622,7.10360942 9.97335268,8.27500744 10.1855661,9.60168585 C10.5431151,11.615573 11.1917616,13.5664704 12.1118246,15.3963999 C12.1510881,15.4785301 12.1971049,15.5681487 12.2548097,15.6760735 C13.5350322,18.2374775 15.1921244,20.6020677 17.1713235,22.6909429 C17.2804772,22.8094819 17.3870036,22.9190949 17.4944603,23.0226985 C17.5409978,23.0754727 17.5972374,23.131055 17.6565671,23.1823325 C18.0204429,23.5517309 18.4227585,23.9259817 18.8607462,24.3049439 C18.9309272,24.3720352 19.0128629,24.4429697 19.0989435,24.5114939 C19.8728478,25.1694931 20.6971734,25.7756494 21.5625077,26.3229322 L21.7129262,26.11734 C19.0644689,23.9984506 18.0053282,21.3104506 18.3559907,18.4845988 C18.6455348,16.1512765 19.9298675,13.9138789 21.4496226,12.837127 C24.8059782,10.4891801 28.1894976,10.6755003 31.1977929,12.4192947 L31.3280921,12.2002724 C28.2395131,10.4099406 24.7489981,10.2177286 21.30021,12.6303397 C19.7198649,13.7500171 18.39866,16.0516485 18.100585,18.4537178 C17.8021273,20.8588718 18.4962862,23.1706137 20.2791748,25.1279655 Z" id="Stroke-75" fill="#333333" fill-rule="nonzero"></path>
                    <path d="M35.607348,15.9772998 C39.4760928,19.6637462 42.3477084,24.0287624 43.3690463,27.7980817 L43.6176232,27.7324538 C42.5830632,23.9143376 39.6861606,19.5108837 35.7860596,15.7945587 L35.607348,15.9772998 Z" id="Stroke-77" fill="#333333" fill-rule="nonzero"></path>
                    <path d="M32.4174477,13.2479016 C32.4337919,13.264035 32.450015,13.2786184 32.4687556,13.2943418 C32.4786648,13.3025949 32.4786648,13.3025949 32.4881705,13.3103554 C32.4987123,13.3189151 32.4987123,13.3189151 32.5088469,13.3271488 C32.8535564,13.5907112 33.1504755,13.8241499 33.4275187,14.050872 C33.5057374,14.1148161 33.5057374,14.1148161 33.5841894,14.178906 C33.6165147,14.2053001 33.6165147,14.2053001 33.6488557,14.2316882 C33.8062625,14.3600945 33.9331487,14.4629984 34.0534586,14.5596098 C34.3886106,14.8442312 34.7337703,15.1506966 35.128136,15.5117659 L35.3031211,15.325544 C34.906567,14.9624712 34.5591016,14.6539585 34.2185475,14.3648135 C34.0961237,14.266443 33.9697135,14.1639251 33.8127742,14.0359002 C33.7804916,14.0095597 33.7804916,14.0095597 33.7482124,13.9832033 C33.6698473,13.9191845 33.6698473,13.9191845 33.5916959,13.8552953 C33.3122793,13.6266309 33.0131989,13.391493 32.6695336,13.1288074 C32.6619064,13.1225379 32.6619064,13.1225379 32.6519194,13.1144292 C32.6434116,13.1074823 32.6434116,13.1074823 32.6354011,13.1008098 C32.6216156,13.0892438 32.6104018,13.0791634 32.5993966,13.0683002 L32.4174477,13.2479016 Z" id="Stroke-79" fill="#333333" fill-rule="nonzero"></path>
                    <path d="M31.5324679,12.6166773 C31.8368855,12.8128651 32.1072824,13.0037876 32.3252534,13.1759147 L32.4859965,12.977578 C32.2611539,12.8000245 31.9841248,12.6044191 31.6731392,12.4039985 L31.5324679,12.6166773 Z" id="Stroke-81" fill="#333333" fill-rule="nonzero"></path>
                    <path d="M21.1663468,25.7894796 C16.6983169,22.4518901 13.8532814,18.2125475 12.7398575,13.6506338 C11.7387948,9.54908563 12.2230826,5.41478302 13.9791445,2.24909092 L13.8662968,2.18809727 C12.0944785,5.3821939 11.6064002,9.54885551 12.614779,13.680379 C13.7352258,18.2710672 16.5971592,22.5355891 21.0887095,25.8907482 L21.1663468,25.7894796 Z" id="Stroke-83" fill="#333333" fill-rule="nonzero"></path>
                    <path d="M21.6675569,26.1572497 C21.6201252,26.1226751 21.5754111,26.0895111 21.5003368,26.0334277 C21.3212497,25.8996108 21.25246,25.8490873 21.1645799,25.7880939 C17.0005915,22.6172379 14.6252693,18.051936 14.1756488,13.0971665 C13.7742342,8.67362144 15.0022057,4.40768201 17.2989915,2.02864913 L17.2058534,1.94103617 C14.8813753,4.34875303 13.6429955,8.65085068 14.0475046,13.1084968 C14.5002196,18.0973671 16.8925525,22.6953631 21.0882874,25.8903148 C21.1767873,25.9518145 21.2448384,26.0017954 21.4074078,26.123271 C21.4981484,26.1910595 21.5431832,26.2244613 21.591129,26.2594107 L21.6675569,26.1572497 Z" id="Stroke-85" fill="#333333" fill-rule="nonzero"></path>
                    <path d="M21.6680544,26.157616 C17.4645721,23.0312462 15.8078792,18.3830809 16.4870107,13.2622008 C17.0638577,8.91258002 19.3525552,4.72680609 21.9718163,2.96182784 L21.8992783,2.85693987 C19.2473463,4.64393333 16.9407527,8.86243737 16.3594419,13.2457163 C15.6746303,18.4094259 17.3476003,23.1032598 21.5906315,26.2590444 L21.6680544,26.157616 Z" id="Stroke-87" fill="#333333" fill-rule="nonzero"></path>
                    <path d="M33.4851036,13.7503004 C33.1816775,13.5071073 32.87669,13.2724538 32.5828822,13.0562128 L32.4699536,12.9726085 C31.7546571,12.4682319 31.6831671,12.4189506 31.4052904,12.2498384 L31.2702488,12.4660435 C31.5407884,12.6306904 31.6117505,12.6796079 32.3179787,13.1775485 L32.4287833,13.2596226 C32.719988,13.4739483 33.0221843,13.7064544 33.3229072,13.9474809 L33.4851036,13.7503004 Z" id="Stroke-89" fill="#333333" fill-rule="nonzero"></path>
                    <path d="M43.8039303,28.539463 C43.7770787,28.4145071 43.7474144,28.2845958 43.744961,28.273698 C43.7259372,28.1891953 43.7064814,28.1088847 43.6798547,28.0037517 L43.607457,27.7306282 C42.5390163,23.9006464 39.525514,19.4456283 35.7767404,15.793057 C35.615836,15.6377729 35.4539103,15.4847582 35.2906124,15.3336093 C34.802132,14.8725178 34.4262784,14.5330633 34.0581288,14.2268017 C33.8864087,14.0805053 33.703423,13.9305989 33.489998,13.7603302 L33.3282539,13.9578723 C33.5396851,14.1265505 33.7206247,14.2747806 33.8911598,14.420056 C34.255585,14.7232307 34.6278535,15.0594474 35.1136908,15.5180355 C35.2766032,15.6688358 35.437237,15.8206298 35.5964182,15.9742489 C39.3152938,19.5976914 42.3045426,24.0168544 43.3589505,27.796495 L43.4305725,28.0667035 C43.4563456,28.1684972 43.4753033,28.2467519 43.4937739,28.3287973 C43.4964032,28.3404768 43.5258989,28.4696495 43.5340691,28.5066525 C43.8260419,29.7669522 43.8527687,30.9802694 43.6317979,32.161773 C43.0261587,33.9359169 42.2268623,35.6213935 41.2526723,37.2090933 C39.9966898,39.262998 38.502035,41.1652887 36.7987804,42.8779427 C34.5157949,45.2129361 31.8610991,47.1618417 28.9398253,48.6476392 C23.8365709,51.1903551 18.8716909,51.5303312 15.1407337,49.3622758 C12.14167,47.6185419 9.2031709,43.477114 6.50306089,37.7102286 C4.54904182,33.5368416 2.82270719,28.6673653 1.8773342,25.0596238 C3.6151322,26.7670545 5.63034477,28.1763479 7.84050332,29.2284221 L8.15878964,29.3740343 C11.0897044,30.6745466 14.2643428,31.3491567 17.4760016,31.3542654 L18.2327137,31.3542656 C23.5027493,31.2299311 29.1314465,28.8816903 32.2497158,25.792519 C32.3810902,25.6660201 32.4753714,25.5712903 32.5653371,25.4731254 C34.1826454,23.8379089 35.1805744,21.4899075 35.17366,19.1503957 C35.1658094,16.4941607 33.8990562,14.0527607 31.3466676,12.2147552 L31.1950165,12.41995 C33.6813433,14.2103836 34.9087354,16.5759234 34.9163465,19.1511367 C34.9230609,21.4229611 33.9521672,23.7073516 32.3778649,25.2992136 C32.2888549,25.3961993 32.1978969,25.48759 32.0687328,25.611978 C28.9963237,28.6556992 23.4308582,30.9775603 18.2296386,31.100307 L17.4762089,31.1002707 C14.3009882,31.0952198 11.162159,30.4282191 8.26563443,29.1429756 L7.95048348,28.998805 C5.62650848,27.8925355 3.51916978,26.3851796 1.72864122,24.5480543 L1.39544887,24.2061909 L1.51104499,24.6666491 C2.43009665,28.3275406 4.2251925,33.4505927 6.26948578,37.816787 C8.98997992,43.6272087 11.9535197,47.8039283 15.0101672,49.5811429 C18.8264761,51.7987961 23.881128,51.4526727 29.0567294,48.8739047 C32.0039747,47.3749026 34.6814028,45.4093085 36.9831669,43.0551019 C38.6996753,41.3291276 40.2066374,39.411173 41.4728652,37.340514 C42.4564563,35.7374931 43.2635529,34.035568 43.8799957,32.2641866 C44.111947,30.9812931 44.0834627,29.7385615 43.8039303,28.539463 Z" id="Stroke-91" fill="#333333" fill-rule="nonzero"></path>
                    <path d="M34.3229477,14.7466097 C37.8080991,17.8997314 40.0522547,21.8037707 41.122637,26.1591411 C42.0339257,29.8671614 42.0488036,33.7766784 41.3024276,37.2668246 L41.4283107,37.2930548 C42.1785574,33.7848088 42.1636066,29.8561427 41.2476679,26.1292011 C40.1714393,21.7500423 37.9144527,17.8236815 34.4098789,14.6529878 L34.3229477,14.7466097 Z" id="Stroke-93" fill="#333333" fill-rule="nonzero"></path>
                    <path d="M31.2558352,12.3828786 C32.0333883,12.8932083 32.7821052,13.4445373 33.4991826,14.0348146 C33.7758399,14.266956 34.0427633,14.496614 34.3002929,14.724221 L34.3861141,14.6296066 C34.1277472,14.4012596 33.8599933,14.170887 33.5820458,13.9376668 C32.860936,13.3440665 32.1084925,12.7899932 31.3270707,12.2771245 L31.2558352,12.3828786 Z" id="Stroke-95" fill="#333333" fill-rule="nonzero"></path>
                    <path d="M31.569562,12.5647016 C32.0132545,12.8290494 32.4408664,13.1194534 32.8498252,13.434159 C33.2365478,13.728698 33.6057674,14.0424895 33.9564277,14.3747501 C33.9694231,14.3875966 33.9806101,14.3983524 34.0057544,14.4223165 C34.0544206,14.4686983 34.0754392,14.4894458 34.0998294,14.5161964 C34.1144059,14.5321836 34.1329541,14.5505982 34.159306,14.5756192 C34.1715978,14.5872903 34.2197925,14.6324404 34.230357,14.6424341 C34.2436829,14.655072 34.2436829,14.655072 34.2567923,14.6676814 C34.2771091,14.687313 34.2941921,14.7044551 34.3089297,14.7201216 L34.3337404,14.7446737 C37.7877233,18.2467195 39.5095176,23.5601934 39.5953214,29.6644744 C39.667076,34.7692655 38.5260843,40.0123215 36.850047,42.9409605 L36.962066,43.0034247 C38.650256,40.0535507 39.7960171,34.7885781 39.7239663,29.6627124 C39.6377451,23.5287387 37.9060135,18.1845983 34.4253202,14.6554786 L34.4015565,14.6320135 C34.3869101,14.61638 34.3684577,14.5978637 34.3467917,14.5769285 C34.3330982,14.5637574 34.3330982,14.5637574 34.3193761,14.5507439 C34.3084768,14.5404334 34.260399,14.4953928 34.2484973,14.4840922 C34.2242074,14.461029 34.2074684,14.4444106 34.1954596,14.4312396 C34.1683868,14.4015468 34.1459479,14.3793974 34.0951191,14.3309544 C34.070516,14.3075062 34.0596882,14.2970957 34.0464624,14.2840405 C33.6915203,13.9477044 33.3187947,13.6309332 32.9286733,13.3338066 C32.5159393,13.0161948 32.0841135,12.7229291 31.6360451,12.4559742 L31.569562,12.5647016 Z" id="Stroke-97" fill="#333333" fill-rule="nonzero"></path>
                    <path d="M31.2161628,12.3559597 C31.81016,12.6653385 32.3445281,13.0203642 32.8349265,13.4300602 C32.9997969,13.5607406 33.1668434,13.7083064 33.3646921,13.894858 L33.4659285,13.9973429 C33.4807942,14.0090032 33.4860352,14.014209 33.4906601,14.0205726 C36.993379,17.5272075 37.9593995,24.0397182 36.5873125,31.6501562 C35.3463552,38.5332686 32.3149969,45.3137973 28.9552284,48.7213237 L29.047427,48.8098996 C32.4272669,45.3820164 35.4688635,38.5785868 36.7139796,31.6724075 C38.0926354,24.0255348 37.1208097,17.473888 33.5887293,13.938969 C33.5823434,13.928856 33.5668624,13.9134793 33.549017,13.9011112 L33.468115,13.8173776 C33.2532634,13.6141653 33.0836403,13.4643233 32.9167567,13.3320749 C32.4204393,12.917406 31.878217,12.5571621 31.30069,12.258563 L31.2161628,12.3559597 Z" id="Stroke-103" fill="#333333" fill-rule="nonzero"></path>
                </g>
            </g>
        </g>
    </g>
</svg>