<?xml version="1.0" encoding="UTF-8"?>
<svg width="23px" height="36px" viewBox="0 0 23 36" version="1.1" xmlns="http://www.w3.org/2000/svg" xmlns:xlink="http://www.w3.org/1999/xlink">
    <!-- Generator: Sketch 49.3 (51167) - http://www.bohemiancoding.com/sketch -->
    <title>Page 1</title>
    <desc>Created with Sketch.</desc>
    <defs>
        <polygon id="path-1" points="22.9883435 35.9919966 22.9883435 0 0 0 0 17.9959983 0 35.9919966 22.9883435 35.9919966"></polygon>
    </defs>
    <g id="-" stroke="none" stroke-width="1" fill="none" fill-rule="evenodd">
        <g id="Page-1">
            <rect id="Rectangle-2" fill="#FFFFFF" x="0" y="2" width="23" height="30"></rect>
            <mask id="mask-2" fill="white">
                <use xlink:href="#path-1"></use>
            </mask>
            <g id="Clip-2"></g>
            <path d="M3.13273299,27.4876223 L19.8555714,27.4876223 L19.8555714,23.4748197 L3.13273299,23.4748197 L3.13273299,27.4876223 Z M3.13273299,20.6658927 L19.8555714,20.6658927 L19.8555714,16.6530901 L3.13273299,16.6530901 L3.13273299,20.6658927 Z M3.13273299,13.8441245 L3.13273299,9.8886824 L3.13273299,9.83132189 L19.8556105,9.83132189 L19.8556105,9.8886824 L19.8556105,13.8441245 L19.8556105,13.9014464 L3.13273299,13.9014464 L3.13273299,13.8441245 Z M3.13273299,7.07971674 L19.8555714,7.07971674 L19.8555714,3.06691416 L3.13273299,3.06691416 L3.13273299,7.07971674 Z M22.9883827,30.3825708 L22.9883827,1.94906009 C22.9883827,0.872497854 22.1048384,0 21.0146071,0 L1.97373639,0 C0.883544218,0 0,0.872497854 0,1.94906009 L0,30.3882876 C0.0374336735,30.3842704 0.0754540816,30.3825708 0.114061224,30.3825708 L22.9883827,30.3825708 Z" id="Fill-1" fill="#F8894D" mask="url(#mask-2)"></path>
            <path d="M22.9883631,31.1908635 L1.95578232e-05,31.1908635 L1.95578232e-05,34.5207476 C1.95578232e-05,35.333297 0.667058673,35.9919966 1.48989541,35.9919966 L21.4984481,35.9919966 C22.3212849,35.9919966 22.9883631,35.333297 22.9883631,34.5207476 L22.9883631,31.1908635 Z" id="Fill-3" fill="#F8894D" mask="url(#mask-2)"></path>
            <path d="M5.05452772,4.32807296 C4.63775051,4.32807296 4.29986956,4.66172961 4.29986956,5.07329614 C4.29986956,5.48490129 4.63775051,5.81851931 5.05452772,5.81851931 C5.47130493,5.81851931 5.80918588,5.48490129 5.80918588,5.07329614 C5.80918588,4.66172961 5.47130493,4.32807296 5.05452772,4.32807296" id="Fill-4" fill="#F8894D" mask="url(#mask-2)"></path>
            <path d="M7.77975,4.32807296 C7.77568197,4.32807296 7.77169218,4.32830472 7.76762415,4.32838197 C7.76359524,4.32830472 7.75956633,4.32807296 7.75553741,4.32807296 C7.3387602,4.32807296 7.00084014,4.66172961 7.00084014,5.07329614 C7.00084014,5.48490129 7.3387602,5.81851931 7.75553741,5.81851931 C7.75956633,5.81851931 7.76359524,5.81828755 7.76762415,5.81824893 C7.77169218,5.81828755 7.77568197,5.81851931 7.77975,5.81851931 C8.19652721,5.81851931 8.53444728,5.48490129 8.53444728,5.07329614 C8.53444728,4.66172961 8.19652721,4.32807296 7.77975,4.32807296" id="Fill-5" fill="#F8894D" mask="url(#mask-2)"></path>
            <path d="M10.4807519,4.32807296 C10.0639747,4.32807296 9.72605459,4.66172961 9.72605459,5.07329614 C9.72605459,5.48490129 10.0639747,5.81851931 10.4807519,5.81851931 C10.8975291,5.81851931 11.23541,5.48490129 11.23541,5.07329614 C11.23541,4.66172961 10.8975291,4.32807296 10.4807519,4.32807296" id="Fill-6" fill="#F8894D" mask="url(#mask-2)"></path>
            <path d="M13.2059741,4.32807296 C12.7891969,4.32807296 12.451316,4.66172961 12.451316,5.07329614 C12.451316,5.48490129 12.7891969,5.81851931 13.2059741,5.81851931 C13.6227514,5.81851931 13.9606323,5.48490129 13.9606323,5.07329614 C13.9606323,4.66172961 13.6227514,4.32807296 13.2059741,4.32807296" id="Fill-7" fill="#F8894D" mask="url(#mask-2)"></path>
            <path d="M5.05452772,11.1497987 C4.63775051,11.1497987 4.29986956,11.483494 4.29986956,11.8950605 C4.29986956,12.306627 4.63775051,12.6402837 5.05452772,12.6402837 C5.47130493,12.6402837 5.80918588,12.306627 5.80918588,11.8950605 C5.80918588,11.483494 5.47130493,11.1497987 5.05452772,11.1497987" id="Fill-8" fill="#F8894D" mask="url(#mask-2)"></path>
            <path d="M7.77975,11.1497987 C7.36297279,11.1497987 7.02509184,11.483494 7.02509184,11.8950605 C7.02509184,12.306627 7.36297279,12.6402837 7.77975,12.6402837 C8.19652721,12.6402837 8.53444728,12.306627 8.53444728,11.8950605 C8.53444728,11.483494 8.19652721,11.1497987 7.77975,11.1497987" id="Fill-9" fill="#F8894D" mask="url(#mask-2)"></path>
            <path d="M5.05452772,17.9142451 C4.63775051,17.9142451 4.29986956,18.2479017 4.29986956,18.6594682 C4.29986956,19.0710348 4.63775051,19.4046914 5.05452772,19.4046914 C5.47130493,19.4046914 5.80918588,19.0710348 5.80918588,18.6594682 C5.80918588,18.2479017 5.47130493,17.9142451 5.05452772,17.9142451" id="Fill-10" fill="#F8894D" mask="url(#mask-2)"></path>
            <path d="M7.77975,17.9142451 C7.77568197,17.9142451 7.77169218,17.9144768 7.76762415,17.9145541 C7.76359524,17.9144768 7.75956633,17.9142451 7.75553741,17.9142451 C7.3387602,17.9142451 7.00084014,18.2479017 7.00084014,18.6594682 C7.00084014,19.0710348 7.3387602,19.4046914 7.75553741,19.4046914 C7.75956633,19.4046914 7.76359524,19.4044597 7.76762415,19.4043824 C7.77169218,19.4044597 7.77568197,19.4046914 7.77975,19.4046914 C8.19652721,19.4046914 8.53444728,19.0710348 8.53444728,18.6594682 C8.53444728,18.2479017 8.19652721,17.9142451 7.77975,17.9142451" id="Fill-11" fill="#F8894D" mask="url(#mask-2)"></path>
            <path d="M10.4807519,17.9142451 C10.0639747,17.9142451 9.72605459,18.2479017 9.72605459,18.6594682 C9.72605459,19.0710348 10.0639747,19.4046914 10.4807519,19.4046914 C10.8975291,19.4046914 11.23541,19.0710348 11.23541,18.6594682 C11.23541,18.2479017 10.8975291,17.9142451 10.4807519,17.9142451" id="Fill-12" fill="#F8894D" mask="url(#mask-2)"></path>
            <path d="M5.05452772,24.735994 C4.63775051,24.735994 4.29986956,25.0696506 4.29986956,25.4812172 C4.29986956,25.8927837 4.63775051,26.2264403 5.05452772,26.2264403 C5.47130493,26.2264403 5.80918588,25.8927837 5.80918588,25.4812172 C5.80918588,25.0696506 5.47130493,24.735994 5.05452772,24.735994" id="Fill-13" fill="#F8894D" mask="url(#mask-2)"></path>
            <path d="M7.75552959,24.735994 C7.33875238,24.735994 7.00083231,25.0696506 7.00083231,25.4812172 C7.00083231,25.8927837 7.33875238,26.2264403 7.75552959,26.2264403 C8.1723068,26.2264403 8.51018776,25.8927837 8.51018776,25.4812172 C8.51018776,25.0696506 8.1723068,24.735994 7.75552959,24.735994" id="Fill-14" fill="#F8894D" mask="url(#mask-2)"></path>
            <path d="M10.4807519,24.735994 C10.0639747,24.735994 9.72605459,25.0696506 9.72605459,25.4812172 C9.72605459,25.8927837 10.0639747,26.2264403 10.4807519,26.2264403 C10.8975291,26.2264403 11.23541,25.8927837 11.23541,25.4812172 C11.23541,25.0696506 10.8975291,24.735994 10.4807519,24.735994" id="Fill-15" fill="#F8894D" mask="url(#mask-2)"></path>
            <path d="M13.2059741,24.735994 C12.7891969,24.735994 12.451316,25.0696506 12.451316,25.4812172 C12.451316,25.8927837 12.7891969,26.2264403 13.2059741,26.2264403 C13.6227514,26.2264403 13.9606323,25.8927837 13.9606323,25.4812172 C13.9606323,25.0696506 13.6227514,24.735994 13.2059741,24.735994" id="Fill-16" fill="#F8894D" mask="url(#mask-2)"></path>
            <path d="M15.9311964,24.735994 C15.5144192,24.735994 15.1765383,25.0696506 15.1765383,25.4812172 C15.1765383,25.8927837 15.5144192,26.2264403 15.9311964,26.2264403 C16.3479736,26.2264403 16.6858546,25.8927837 16.6858546,25.4812172 C16.6858546,25.0696506 16.3479736,24.735994 15.9311964,24.735994" id="Fill-17" fill="#F8894D" mask="url(#mask-2)"></path>
        </g>
    </g>
</svg>