<?xml version="1.0" encoding="UTF-8"?>
<svg width="45px" height="40px" viewBox="0 0 45 40" version="1.1" xmlns="http://www.w3.org/2000/svg" xmlns:xlink="http://www.w3.org/1999/xlink">
    <!-- Generator: Sketch 48.2 (47327) - http://www.bohemiancoding.com/sketch -->
    <title>Page 1</title>
    <desc>Created with Sketch.</desc>
    <defs></defs>
    <g id="icon/block-state-group" stroke="none" stroke-width="1" fill="none" fill-rule="evenodd" transform="translate(-2.000000, 1.000000)">
        <g id="Group" transform="translate(3.000000, 0.000000)">
            <g id="Page-1" transform="translate(22.000000, 19.500000) rotate(-180.000000) translate(-22.000000, -19.500000) ">
                <path d="M43.1514,18.1445 L33.9444,2.1145 C33.3924,1.1545 32.3744,0.5635 31.2714,0.5635 L12.8564,0.5635 C11.7544,0.5635 10.7354,1.1545 10.1834,2.1145 L0.9764,18.1445 C0.4244,19.1045 0.4244,20.2875 0.9764,21.2475 L10.1834,37.2775 C10.7354,38.2375 11.7544,38.8285 12.8564,38.8285 L31.2714,38.8285 C32.3744,38.8285 33.3924,38.2375 33.9444,37.2775 L43.1514,21.2465 C43.7034,20.2875 43.7034,19.1045 43.1514,18.1445" id="Fill-1" fill="#FFFFFF"></path>
                <path d="M43.1514,18.1445 L33.9444,2.1145 C33.3924,1.1545 32.3744,0.5635 31.2714,0.5635 L12.8564,0.5635 C11.7544,0.5635 10.7354,1.1545 10.1834,2.1145 L0.9764,18.1445 C0.4244,19.1045 0.4244,20.2875 0.9764,21.2475 L10.1834,37.2775 C10.7354,38.2375 11.7544,38.8285 12.8564,38.8285 L31.2714,38.8285 C32.3744,38.8285 33.3924,38.2375 33.9444,37.2775 L43.1514,21.2465 C43.7034,20.2875 43.7034,19.1045 43.1514,18.1445 Z" id="Stroke-3" stroke="#CECECE" stroke-width="1.126"></path>
                <path d="M35.295,9.8584 L40.18,18.3634 C40.653,19.1874 40.653,20.2034 40.18,21.0284 L32.27,34.7994 C31.796,35.6244 30.921,36.1314 29.974,36.1314 L23.92,36.1314 L27.714,29.5324 L33.364,19.6954 L27.714,9.8584 L35.295,9.8584 Z" id="Fill-5" fill="#FF2A58"></path>
                <path d="M10.7637,19.6953 L16.4137,9.8583 L35.2947,9.8583 L32.2697,4.5913 C31.7957,3.7673 30.9207,3.2593 29.9737,3.2593 L14.1547,3.2593 C13.2067,3.2593 12.3317,3.7673 11.8587,4.5913 L6.9727,13.0973 L10.7637,19.6953 Z" id="Fill-7" fill="#FF2A58"></path>
                <path d="M16.4141,29.5322 L27.7141,29.5322 L23.9201,36.1322 L14.1541,36.1322 C13.2071,36.1322 12.3321,35.6242 11.8581,34.8002 L3.9481,21.0282 C3.4751,20.2032 3.4751,19.1872 3.9481,18.3632 L6.9731,13.0972 L10.7641,19.6952 L16.4141,29.5322 Z" id="Fill-9" fill="#FF2A58"></path>
                <polygon id="Fill-11" fill="#FFFFFF" points="14.1890271 5.97960897 29.9999665 6.01524134 37.934925 19.7607324 30.0614016 33.470591 14.2504622 33.4349587 6.314275 19.6894676"></polygon>
            </g>
        </g>
    </g>
</svg>