<?xml version="1.0" encoding="UTF-8"?>
<svg width="92px" height="147px" viewBox="0 0 92 147" version="1.1" xmlns="http://www.w3.org/2000/svg" xmlns:xlink="http://www.w3.org/1999/xlink">
    <title>Kafka</title>
    <desc>Kafka icon</desc>
    <defs>
        <g id="kafka-icon" stroke="none" stroke-width="1" fill="none" fill-rule="evenodd">
            <g id="ICON---Black-on-White" transform="translate(-45.000000, -18.000000)" style="fill: var(--primary-color, #1A1919);">
                <path d="M76.517,31.188 C74.9,29.569 72.656,28.567 70.156,28.567 C67.66,28.567 65.434,29.569 63.836,31.188 L63.794,31.188 C62.184,32.799 61.184,35.051 61.184,37.541 C61.184,40.041 62.184,42.273 63.794,43.875 L63.836,43.91 C65.434,45.522 67.66,46.512 70.156,46.512 C72.656,46.512 74.9,45.522 76.517,43.91 L76.536,43.875 C78.155,42.273 79.142,40.041 79.142,37.541 C79.142,35.051 78.155,32.799 76.536,31.188 L76.517,31.188 Z M70.156,154.014 C72.656,154.014 74.9,152.994 76.517,151.404 L76.536,151.356 C78.155,149.762 79.142,147.513 79.142,145.041 C79.142,142.541 78.155,140.3 76.536,138.683 L76.517,138.683 C74.9,137.04 72.656,136.049 70.156,136.049 C67.66,136.049 65.434,137.04 63.836,138.683 L63.794,138.683 C62.184,140.3 61.184,142.541 61.184,145.041 C61.184,147.513 62.184,149.762 63.794,151.356 L63.836,151.404 C65.434,152.994 67.66,154.014 70.156,154.014 Z M119.041,126.828 C121.262,126.244 123.276,124.817 124.502,122.663 L124.67,122.348 C125.761,120.299 125.961,117.937 125.378,115.847 C124.79,113.608 123.347,111.624 121.194,110.386 L121.068,110.3 C118.971,109.155 116.582,108.902 114.387,109.493 C112.156,110.05 110.152,111.542 108.93,113.678 C107.693,115.802 107.433,118.243 108.026,120.495 C108.638,122.706 110.069,124.707 112.207,125.957 L112.222,125.957 C114.364,127.188 116.79,127.414 119.041,126.828 Z M79.359,82.097 C77.002,79.745 73.753,78.272 70.156,78.272 C66.564,78.272 63.322,79.745 60.97,82.097 C58.629,84.437 57.184,87.68 57.184,91.272 C57.184,94.874 58.629,98.123 60.97,100.494 C63.322,102.83 66.564,104.291 70.156,104.291 C73.753,104.291 77.002,102.83 79.359,100.494 C81.707,98.123 83.152,94.874 83.152,91.272 C83.152,87.68 81.707,84.437 79.359,82.097 Z M74.184,66.801 C79.406,67.66 84.095,70.16 87.68,73.772 L87.707,73.772 C88.276,74.348 88.832,74.966 89.345,75.596 L98.304,70.409 C97.099,66.773 97.045,62.966 98.013,59.399 C99.291,54.625 102.388,50.348 107.031,47.661 L107.184,47.569 C111.776,44.966 116.998,44.43 121.711,45.706 C126.486,46.986 130.79,50.095 133.472,54.735 L133.472,54.742 C136.137,59.357 136.679,64.649 135.406,69.411 C134.137,74.188 131.026,78.492 126.388,81.159 L125.165,81.886 L125.041,81.886 C120.748,83.93 116.031,84.245 111.698,83.107 C108.136,82.16 104.874,80.177 102.318,77.358 L93.372,82.522 C94.401,85.243 94.97,88.178 94.97,91.272 C94.97,94.357 94.401,97.329 93.372,100.069 L102.318,105.215 C104.874,102.355 108.136,100.414 111.698,99.468 C116.472,98.161 121.762,98.716 126.388,101.413 L126.684,101.55 L126.684,101.57 C131.151,104.272 134.151,108.457 135.406,113.18 C136.679,117.912 136.137,123.205 133.472,127.828 L133.309,128.154 L133.29,128.125 C130.61,132.578 126.388,135.596 121.726,136.876 C116.944,138.136 111.651,137.597 107.031,134.942 L107.031,134.905 C102.388,132.216 99.291,127.93 98.013,123.164 C97.045,119.605 97.099,115.802 98.304,112.163 L89.345,106.994 C88.832,107.625 88.276,108.215 87.707,108.79 L87.68,108.819 C84.095,112.414 79.406,114.911 74.184,115.743 L74.184,126.098 C77.906,126.875 81.234,128.735 83.846,131.347 L83.859,131.374 C87.359,134.855 89.526,139.707 89.526,145.041 C89.526,150.356 87.359,155.182 83.859,158.681 L83.846,158.734 C80.323,162.235 75.489,164.404 70.156,164.404 C64.851,164.404 60.003,162.235 56.489,158.734 L56.475,158.734 L56.475,158.681 C52.971,155.182 50.801,150.356 50.801,145.041 C50.801,139.707 52.971,134.855 56.475,131.374 L56.475,131.347 L56.489,131.347 C59.096,128.735 62.435,126.875 66.143,126.098 L66.143,115.743 C60.92,114.911 56.238,112.414 52.66,108.819 L52.624,108.79 C48.156,104.301 45.355,98.123 45.355,91.272 C45.355,84.437 48.156,78.265 52.624,73.772 L52.66,73.772 C56.238,70.16 60.92,67.66 66.143,66.801 L66.143,56.493 C62.435,55.687 59.096,53.828 56.489,51.234 L56.475,51.234 L56.475,51.206 C52.971,47.688 50.801,42.874 50.801,37.541 C50.801,32.235 52.971,27.376 56.475,23.876 L56.489,23.856 C60.003,20.346 64.851,18.177 70.156,18.177 C75.489,18.177 80.323,20.346 83.846,23.856 L83.846,23.876 L83.859,23.876 C87.359,27.376 89.526,32.235 89.526,37.541 C89.526,42.874 87.359,47.688 83.859,51.206 L83.846,51.234 C81.234,53.828 77.906,55.687 74.184,56.493 L74.184,66.801 Z M124.502,59.93 L124.43,59.817 C123.194,57.735 121.221,56.347 119.041,55.743 C116.79,55.151 114.364,55.4 112.207,56.633 L112.222,56.633 C110.069,57.856 108.627,59.855 108.026,62.099 C107.433,64.32 107.693,66.773 108.93,68.908 L108.972,68.967 C110.212,71.078 112.184,72.494 114.387,73.07 C116.601,73.687 119.068,73.427 121.194,72.188 L121.308,72.135 C123.402,70.885 124.795,68.908 125.378,66.744 C125.972,64.514 125.734,62.069 124.502,59.93 Z" id="Fill-4"></path>
            </g>
        </g>
    </defs>
</svg>