<?xml version="1.0" encoding="UTF-8"?>
<svg width="39px" height="35px" viewBox="0 0 39 35" version="1.1" xmlns="http://www.w3.org/2000/svg" xmlns:xlink="http://www.w3.org/1999/xlink">
    <!-- Generator: Sketch 51.3 (57544) - http://www.bohemiancoding.com/sketch -->
    <title>workload-normal</title>
    <desc>Created with Sketch.</desc>
    <defs></defs>
    <g id="Page-1" stroke="none" stroke-width="1" fill="none" fill-rule="evenodd">
        <g id="workload-normal" fill-rule="nonzero">
            <path d="M17.5400341,0.000851765436 L17.5405196,-3.55271368e-15 L27.8507406,1.19949929e-24 C28.8505132,1.19949929e-24 29.7742736,0.540871052 30.2746877,1.41818945 L38.6254812,16.0813314 C39.1248396,16.9597145 39.1248396,18.0414566 38.6254812,18.918775 L35.4321512,24.5250971 L30.2740543,33.5818105 C29.7746959,34.4591289 28.8509355,35 27.8501072,35 L11.1495761,35 C10.1498035,35 9.22604314,34.4591289 8.72562897,33.5818105 L5.53205753,27.9739999 L25.4652219,27.9739999 L31.429833,17.500903 L25.4647997,7.02706485 L13.5350948,7.02706485 L13.6395061,6.84388701 L13.5352003,7.02685191 L7.5703479,17.5003726 L13.5352003,27.9738934 L5.53174081,27.9738934 L0.374518833,18.9185621 C-0.124839611,18.0412437 -0.124839611,16.9595016 0.374518833,16.0811185 L8.72531225,1.41904122 C9.22572642,0.54065811 10.1494868,0.000851765436 11.1492594,0.000851765436 L17.5400341,0.000851765436 Z" id="Combined-Shape" fill="#D4D4D4"></path>
            <polygon id="Fill-11" fill="#FFFFFF" transform="translate(19.500000, 17.500000) rotate(-180.000000) translate(-19.500000, -17.500000) " points="11.2182631 3 27.7189042 3.03758827 36 17.5375883 27.7830192 32 11.2823781 31.9624117 3 17.4624117"></polygon>
        </g>
    </g>
</svg>
